<svg xmlns="http://www.w3.org/2000/svg" viewBox="0 0 131.08 128.84"><defs><style>.cls-1{fill:#64a369;}</style></defs><g id="Layer_2" data-name="Layer 2"><g id="Layer_1-2" data-name="Layer 1"><path class="cls-1" d="M126.56,64l-1.35-1.69a20.73,20.73,0,0,1-4-17.54l.49-2.11A20.74,20.74,0,0,0,101.47,17.3H99.31A20.73,20.73,0,0,1,83.1,9.5L81.75,7.81a20.73,20.73,0,0,0-32.42,0L48,9.5a20.73,20.73,0,0,1-16.21,7.8H29.61A20.74,20.74,0,0,0,9.4,42.65l.48,2.11a20.76,20.76,0,0,1-4,17.54L4.53,64A20.74,20.74,0,0,0,11.74,95.6l1.95.93A20.78,20.78,0,0,1,24.91,110.6l.48,2.11A20.73,20.73,0,0,0,54.6,126.77l1.95-.93a20.71,20.71,0,0,1,18,0l1.95.93a20.73,20.73,0,0,0,29.21-14.06l.48-2.11a20.74,20.74,0,0,1,11.21-14.07l2-.93A20.73,20.73,0,0,0,126.56,64Z"/></g></g></svg>