<svg xmlns="http://www.w3.org/2000/svg" viewBox="0 0 995.79 978.4"><defs><style>.cls-1{fill:#1c4655;}.cls-2{fill:#fff;}</style></defs><g id="Layer_2" data-name="Layer 2"><g id="Layer_1-2" data-name="Layer 1"><path class="cls-1" d="M344,938.4a111.83,111.83,0,0,1-109-86.94l-22.66-99.24a31.65,31.65,0,0,0-17.2-21.57L103.35,686.5A111.78,111.78,0,0,1,64.43,516.09l63.46-79.6A31.62,31.62,0,0,0,134,409.6l-22.66-99.25a111.78,111.78,0,0,1,109-136.67h101.8a31.64,31.64,0,0,0,24.85-12L410.44,82.1a111.79,111.79,0,0,1,174.8,0l63.47,79.58a31.63,31.63,0,0,0,24.86,12H775.38a111.79,111.79,0,0,1,109,136.65l-22.64,99.25a31.59,31.59,0,0,0,6.14,26.89L931.35,516A111.8,111.8,0,0,1,892.47,686.4l-91.71,44.18a31.67,31.67,0,0,0-17.2,21.57L760.92,851.4a111.83,111.83,0,0,1-109,87,110.77,110.77,0,0,1-48.43-11.11L511.72,883.1a31.85,31.85,0,0,0-27.58,0l-91.71,44.18A110.77,110.77,0,0,1,344,938.4Z"/><path class="cls-2" d="M497.84,80A71.42,71.42,0,0,1,554,107l63.48,79.58a71.8,71.8,0,0,0,56.13,27H775.38a71.79,71.79,0,0,1,70,87.76l-22.64,99.24a71.78,71.78,0,0,0,13.87,60.74l63.48,79.58a71.79,71.79,0,0,1-25,109.44L783.4,694.55a71.79,71.79,0,0,0-38.83,48.7L721.93,842.5A71.69,71.69,0,0,1,620.8,891.22l-91.72-44.16a71.84,71.84,0,0,0-62.3,0l-91.71,44.18a71.7,71.7,0,0,1-101.14-48.69l-22.67-99.25a71.81,71.81,0,0,0-38.84-48.7L120.7,650.46A71.79,71.79,0,0,1,95.71,541l63.45-79.59A71.82,71.82,0,0,0,173,400.69l-22.66-99.24a71.78,71.78,0,0,1,70-87.77h101.8a71.81,71.81,0,0,0,56.12-27L441.71,107a71.4,71.4,0,0,1,56.13-27m0-80A151,151,0,0,0,379.16,57.16l-61,76.51H220.32a151.79,151.79,0,0,0-148,185.58l21.79,95.39-61,76.5A151.79,151.79,0,0,0,86,722.54L174.15,765l21.79,95.39a151.7,151.7,0,0,0,213.85,103l88.15-42.46,88.15,42.44a150.48,150.48,0,0,0,65.79,15.07,151.84,151.84,0,0,0,148-118.08l21.76-95.39,88.15-42.46A151.79,151.79,0,0,0,962.62,491l-61-76.49,21.76-95.39a151.77,151.77,0,0,0-148-185.55H677.52l-61-76.48A151,151,0,0,0,497.84,0Z"/></g></g></svg>