<svg xmlns="http://www.w3.org/2000/svg" viewBox="0 0 162.99 88.28"><defs><style>.cls-1{fill:#fbbb48;}</style></defs><g id="Layer_2" data-name="Layer 2"><g id="Layer_1-2" data-name="Layer 1"><path class="cls-1" d="M32.63,44.56H44.5v5.08H52v-28H44.5v5.22H35.4v6.87h9.1v4H32.63v-16H25.16v8.81H7.47V21.64H0v28H27C30.69,49.64,32.48,48.07,32.63,44.56Zm-7.47-1.64H7.47V37.17H25.16Z"/><path class="cls-1" d="M104,56V32.84H62.49c-3.14,0-4.48,1.34-4.48,4.48v24.3H98.4C102.28,61.62,104,59.9,104,56ZM96.53,54.9H65.47V39.56H96.53Z"/><path class="cls-1" d="M139.92,54.71V49.79h23V43.07h-46V39.41h40.4c3.88,0,5.6-1.72,5.6-5.6V21.64H109.46v6.72h46v4.48h-46V49.79h23v4.92h-23v6.72H163V54.71Z"/><path class="cls-1" d="M148.65,65.43H123.72c-9,0-14.26,4-14.26,11.42a12,12,0,0,0,.89,4.71H85l-2.8-15.13a1.66,1.66,0,0,0-3.22,0l-2.8,15.13H7.69V72.67h39.8c3.13,0,4.48-1.34,4.48-4.48V54.71H.07v6.72H44.5V66.1H.22V88.28H148.65c9,0,14.26-4,14.26-11.43S157.61,65.43,148.65,65.43Zm-1,16.13h-23c-5.23,0-7.77-1.8-7.77-4.71s2.54-4.7,7.77-4.7h23c5.23,0,7.77,1.79,7.77,4.7S152.91,81.56,147.68,81.56Z"/><path class="cls-1" d="M81.49,0h0a11.1,11.1,0,0,1-5.83,5.84h0a11.06,11.06,0,0,1,5.83,5.84h0a11.08,11.08,0,0,1,5.83-5.83h0A11.14,11.14,0,0,1,81.49,0Z"/><path class="cls-1" d="M63.92,4.29h0A7.4,7.4,0,0,1,60,8.19h0a7.4,7.4,0,0,1,3.9,3.9h0a7.47,7.47,0,0,1,3.9-3.9h0A7.4,7.4,0,0,1,63.92,4.29Z"/><path class="cls-1" d="M50.23,11.17h0A5.17,5.17,0,0,1,47.5,13.9h0a5.17,5.17,0,0,1,2.73,2.73h0A5.19,5.19,0,0,1,53,13.9h0A5.25,5.25,0,0,1,50.23,11.17Z"/><path class="cls-1" d="M99.07,4.29h0a7.4,7.4,0,0,0,3.9,3.9h0a7.4,7.4,0,0,0-3.9,3.9h0a7.47,7.47,0,0,0-3.9-3.9h0A7.4,7.4,0,0,0,99.07,4.29Z"/><path class="cls-1" d="M112.75,11.17h0a5.21,5.21,0,0,0,2.74,2.73h0a5.2,5.2,0,0,0-2.74,2.73h0A5.19,5.19,0,0,0,110,13.9h0A5.21,5.21,0,0,0,112.75,11.17Z"/></g></g></svg>