<svg width="110" height="109" viewBox="0 0 110 109" fill="none" xmlns="http://www.w3.org/2000/svg">
<g clip-path="url(#clip0_6_8)">
<path d="M71.1775 108.044L59.1031 102.172C57.8243 101.549 56.4231 101.225 55.0037 101.225C53.5843 101.225 52.1831 101.549 50.9043 102.172L38.834 108.044C37.5552 108.668 36.1539 108.993 34.7341 108.993C33.3143 108.994 31.9127 108.67 30.6334 108.047C29.3541 107.424 28.2301 106.517 27.3448 105.394C26.4596 104.271 25.836 102.96 25.5203 101.56L22.5359 88.3437C22.2191 86.9418 21.5934 85.6306 20.7056 84.5078C19.8177 83.385 18.6906 82.4796 17.4085 81.8594L5.33415 75.9874C4.05501 75.3624 2.93162 74.4536 2.04759 73.3285C1.16357 72.2035 0.541667 70.8912 0.228172 69.4893C-0.0853234 68.0874 -0.0823409 66.632 0.236898 65.2314C0.556136 63.8309 1.18341 62.5212 2.07204 61.3998L10.4242 50.801C11.3085 49.6772 11.9316 48.3665 12.2473 46.9659C12.563 45.5654 12.5632 44.1109 12.248 42.7103L9.26361 29.4942C8.94734 28.0946 8.94671 26.6409 9.26178 25.241C9.57685 23.8411 10.1995 22.531 11.0836 21.408C11.9676 20.285 13.0903 19.3779 14.3682 18.7541C15.6462 18.1304 17.0466 17.8059 18.4655 17.8049H31.8663C33.2857 17.8036 34.6867 17.4791 35.9654 16.8554C37.244 16.2317 38.3675 15.3249 39.2527 14.202L47.6049 3.59896C48.4901 2.47662 49.6138 1.57043 50.8925 0.947647C52.1712 0.32486 53.5721 0.00146484 54.9912 0.00146484C56.4104 0.00146484 57.8113 0.32486 59.09 0.947647C60.3687 1.57043 61.4924 2.47662 62.3776 3.59896L70.734 14.1978C71.6195 15.3199 72.7432 16.226 74.0218 16.8489C75.3005 17.4719 76.7012 17.7957 78.1203 17.7965H91.5211C92.9396 17.7977 94.3395 18.1221 95.6171 18.7456C96.8947 19.3691 98.0172 20.2758 98.9011 21.3983C99.7851 22.5208 100.408 23.8303 100.723 25.2297C101.039 26.629 101.039 28.0823 100.723 29.4816L97.7428 42.7019C97.4267 44.1018 97.4265 45.5558 97.7422 46.9558C98.058 48.3559 98.6816 49.6658 99.5666 50.7884L107.923 61.3872C108.808 62.51 109.432 63.8203 109.748 65.2206C110.065 66.621 110.065 68.0755 109.749 69.4759C109.433 70.8763 108.809 72.1867 107.924 73.3097C107.039 74.4326 105.915 75.3393 104.636 75.9622L92.5657 81.8342C91.2862 82.4596 90.1627 83.369 89.2785 84.4945C88.3944 85.6201 87.7725 86.9329 87.459 88.3353L84.4788 101.556C84.1624 102.954 83.539 104.263 82.6547 105.385C81.7703 106.507 80.6478 107.413 79.3702 108.037C78.0927 108.66 76.6929 108.984 75.2747 108.985C73.8564 108.987 72.4561 108.665 71.1775 108.044Z" fill="#FFCC66"/>
</g>
<defs>
<clipPath id="clip0_6_8">
<rect width="110" height="109" fill="white"/>
</clipPath>
</defs>
</svg>
