<?xml version="1.0" encoding="UTF-8"?><svg id="_레이어_2" xmlns="http://www.w3.org/2000/svg" xmlns:xlink="http://www.w3.org/1999/xlink" viewBox="0 0 835.74 818.42"><defs><style>.cls-1{fill:url(#_무제_그라디언트_3);}</style><linearGradient id="_무제_그라디언트_3" x1="0" y1="409.21" x2="835.74" y2="409.21" gradientUnits="userSpaceOnUse"><stop offset="0" stop-color="#ffc"/><stop offset="1" stop-color="#9fc"/></linearGradient></defs><g id="Layer_1"><path class="cls-1" d="M540.77,811.25l-91.72-44.16c-19.68-9.48-42.61-9.47-62.3,0l-91.71,44.18c-41.53,20-90.88-3.75-101.14-48.69l-22.66-99.24c-4.86-21.3-19.16-39.22-38.85-48.7l-91.72-44.16c-41.53-19.99-53.73-73.39-24.99-109.44l63.46-79.6c13.62-17.08,18.72-39.44,13.85-60.74l-22.66-99.24c-10.26-44.94,23.88-87.77,69.98-87.77h101.8c21.85-.02,42.5-9.97,56.12-27.05l63.46-79.6c28.74-36.04,83.51-36.05,112.25,0l63.48,79.58c13.62,17.08,34.28,27.02,56.13,27.02h101.8c46.1-.02,80.25,42.8,70,87.74l-22.64,99.25c-4.86,21.3.25,43.65,13.87,60.73l63.48,79.58c28.74,36.04,16.56,89.44-24.97,109.44l-91.71,44.18c-19.68,9.48-33.98,27.41-38.83,48.71l-22.64,99.25c-10.25,44.94-59.6,68.71-101.13,48.72v.02Z"/></g></svg>